<svg id="svg" version="1.1" xmlns="http://www.w3.org/2000/svg" xmlns:xlink="http://www.w3.org/1999/xlink" width="400" height="300" viewBox="0, 0, 400,300"><g id="svgg"><path id="path0" d="M132.703 50.113 C 132.703 50.690,132.765 50.926,132.840 50.638 C 132.915 50.349,132.915 49.876,132.840 49.587 C 132.765 49.299,132.703 49.535,132.703 50.113 M232.163 59.490 C 231.685 59.841,231.648 65.277,231.580 145.161 L 231.508 230.458 242.911 230.458 L 254.314 230.458 254.240 145.337 C 254.172 66.495,254.130 60.176,253.669 59.665 C 253.035 58.965,233.098 58.802,232.163 59.490 M186.218 68.589 C 185.804 69.003,185.746 70.641,185.744 82.017 C 185.742 89.143,185.708 125.458,185.669 162.716 L 185.596 230.458 196.999 230.458 L 208.402 230.458 208.329 149.662 C 208.261 74.034,208.224 68.843,207.747 68.492 C 206.901 67.870,186.847 67.959,186.218 68.589 M277.727 74.404 C 277.320 75.191,277.269 83.916,277.269 152.873 L 277.269 230.458 288.672 230.458 L 300.075 230.458 300.075 152.485 C 300.075 77.327,300.055 74.494,299.526 74.015 C 299.038 73.573,297.834 73.518,288.581 73.518 L 278.185 73.518 277.727 74.404 M140.307 77.591 C 139.880 78.017,139.835 85.417,139.835 154.560 L 139.835 231.058 242.911 231.058 L 345.986 231.058 345.986 172.693 C 345.986 114.729,345.982 114.324,345.386 113.728 C 344.559 112.901,324.770 112.782,323.952 113.600 C 323.538 114.014,323.480 115.653,323.477 127.028 C 323.475 134.154,323.441 160.340,323.402 185.218 L 323.331 230.451 334.584 230.533 C 340.773 230.578,299.520 230.615,242.911 230.615 C 186.302 230.615,145.049 230.578,151.238 230.533 L 162.491 230.451 162.420 154.338 C 162.354 83.735,162.313 78.186,161.848 77.673 C 161.137 76.887,141.087 76.811,140.307 77.591 M124.728 92.348 C 124.651 92.472,125.217 92.534,125.985 92.485 C 128.366 92.336,128.664 92.207,126.724 92.164 C 125.703 92.141,124.804 92.224,124.728 92.348 M130.293 92.483 C 130.095 92.681,129.932 92.977,129.932 93.141 C 129.932 93.304,130.101 93.217,130.308 92.946 C 130.514 92.675,131.223 92.402,131.883 92.339 L 133.083 92.224 131.868 92.173 C 131.200 92.146,130.491 92.285,130.293 92.483 M93.143 137.434 C 93.143 139.827,93.189 140.806,93.246 139.610 C 93.303 138.413,93.303 136.455,93.246 135.259 C 93.189 134.062,93.143 135.041,93.143 137.434 M94.938 136.684 C 94.939 138.665,94.987 139.436,95.046 138.398 C 95.105 137.360,95.104 135.739,95.045 134.797 C 94.986 133.854,94.938 134.704,94.938 136.684 M30.726 137.584 C 30.727 139.895,30.774 140.801,30.831 139.597 C 30.888 138.393,30.887 136.503,30.830 135.396 C 30.772 134.289,30.726 135.274,30.726 137.584 M80.539 137.584 C 80.539 139.895,80.586 140.801,80.643 139.597 C 80.700 138.393,80.700 136.503,80.642 135.396 C 80.585 134.289,80.538 135.274,80.539 137.584 M126.111 137.350 C 126.567 137.419,127.242 137.417,127.611 137.346 C 127.980 137.274,127.607 137.218,126.782 137.220 C 125.956 137.222,125.655 137.281,126.111 137.350 M132.703 140.435 C 132.703 141.013,132.765 141.249,132.840 140.960 C 132.915 140.671,132.915 140.199,132.840 139.910 C 132.765 139.621,132.703 139.857,132.703 140.435 M131.212 182.661 C 131.668 182.730,132.343 182.728,132.712 182.657 C 133.081 182.586,132.708 182.529,131.883 182.531 C 131.058 182.534,130.756 182.592,131.212 182.661 M132.709 230.608 C 132.712 231.268,132.774 231.503,132.845 231.129 C 132.917 230.756,132.914 230.216,132.839 229.929 C 132.764 229.642,132.706 229.947,132.709 230.608 M335.334 243.661 C 335.978 244.321,336.573 244.861,336.656 244.861 C 336.738 244.861,336.279 244.321,335.634 243.661 C 334.989 243.001,334.394 242.461,334.312 242.461 C 334.229 242.461,334.689 243.001,335.334 243.661 M154.309 244.570 C 153.770 245.060,153.441 245.461,153.578 245.461 C 153.714 245.461,154.214 245.056,154.689 244.561 C 155.792 243.410,155.579 243.415,154.309 244.570 M331.583 246.512 C 332.646 247.584,333.584 248.462,333.666 248.462 C 333.749 248.462,332.946 247.584,331.883 246.512 C 330.820 245.439,329.882 244.561,329.800 244.561 C 329.717 244.561,330.520 245.439,331.583 246.512 M332.483 244.655 C 332.483 244.707,332.922 245.146,333.458 245.630 L 334.434 246.512 333.552 245.536 C 332.731 244.627,332.483 244.423,332.483 244.655 M242.011 246.062 C 242.655 246.722,243.250 247.262,243.333 247.262 C 243.415 247.262,242.955 246.722,242.311 246.062 C 241.666 245.401,241.071 244.861,240.988 244.861 C 240.906 244.861,241.366 245.401,242.011 246.062 M194.880 247.037 L 193.998 248.012 194.974 247.131 C 195.510 246.646,195.949 246.207,195.949 246.155 C 195.949 245.924,195.701 246.128,194.880 247.037 M283.931 247.622 C 283.494 248.059,283.464 248.661,283.868 248.910 C 284.038 249.016,284.088 248.894,283.984 248.624 C 283.885 248.366,283.971 247.954,284.174 247.708 C 284.617 247.174,284.441 247.112,283.931 247.622 M150.169 248.837 L 149.287 249.812 150.263 248.931 C 151.172 248.110,151.376 247.862,151.144 247.862 C 151.092 247.862,150.653 248.301,150.169 248.837 M328.113 251.538 L 327.232 252.513 328.207 251.632 C 329.116 250.810,329.320 250.563,329.088 250.563 C 329.037 250.563,328.598 251.002,328.113 251.538 M232.177 254.458 C 233.979 256.318,234.411 256.627,234.727 256.286 C 235.038 255.953,235.033 255.919,234.703 256.107 C 234.429 256.262,233.600 255.667,232.152 254.278 L 230.008 252.219 232.177 254.458 M237.194 253.534 C 237.038 253.683,236.639 253.870,236.309 253.950 C 235.740 254.086,235.742 254.096,236.347 254.129 C 236.698 254.148,237.154 253.961,237.359 253.713 C 237.767 253.223,237.653 253.099,237.194 253.534 M182.447 258.513 C 182.060 258.925,181.800 259.313,181.869 259.374 C 181.939 259.436,182.310 259.098,182.693 258.625 C 183.553 257.566,183.401 257.497,182.447 258.513 M128.282 266.167 C 129.262 267.157,130.131 267.967,130.214 267.967 C 130.296 267.967,129.562 267.157,128.582 266.167 C 127.602 265.176,126.733 264.366,126.650 264.366 C 126.568 264.366,127.302 265.176,128.282 266.167 " stroke="none" fill="#6b2363" fill-rule="evenodd"></path><path id="path1" d="M97.674 2.321 C 96.849 3.582,96.120 4.757,96.054 4.932 C 95.988 5.108,95.848 5.319,95.743 5.401 C 95.638 5.484,94.747 6.767,93.763 8.252 C 92.779 9.737,91.873 11.088,91.748 11.253 C 90.797 12.516,88.222 16.573,88.222 16.809 C 88.222 16.972,88.096 17.104,87.942 17.104 C 87.788 17.104,87.582 17.358,87.483 17.669 C 87.385 17.979,87.041 18.536,86.720 18.907 C 86.398 19.277,85.696 20.272,85.159 21.118 C 84.621 21.964,84.078 22.701,83.951 22.756 C 83.825 22.811,83.721 22.974,83.721 23.118 C 83.721 23.362,80.785 27.962,80.174 28.676 C 80.024 28.852,79.727 29.321,79.513 29.720 C 79.300 30.119,78.966 30.604,78.771 30.799 C 78.577 30.994,77.959 31.874,77.399 32.756 C 76.838 33.637,76.276 34.404,76.149 34.459 C 76.023 34.514,75.919 34.694,75.919 34.860 C 75.919 35.206,74.081 37.909,73.743 38.060 C 73.620 38.115,73.518 38.287,73.518 38.442 C 73.518 38.691,71.852 41.331,71.159 42.179 C 71.016 42.355,70.727 42.819,70.518 43.211 C 70.308 43.603,69.885 44.193,69.577 44.524 C 69.269 44.854,69.017 45.287,69.017 45.486 C 69.017 45.685,68.815 45.925,68.567 46.020 C 68.320 46.115,68.117 46.344,68.117 46.528 C 68.117 46.900,66.298 49.604,65.941 49.762 C 65.818 49.817,65.716 49.990,65.716 50.145 C 65.716 50.405,64.015 53.086,63.316 53.927 C 63.149 54.127,62.857 54.634,62.666 55.052 C 62.475 55.471,62.222 55.814,62.104 55.814 C 61.985 55.814,61.724 56.209,61.524 56.693 C 61.324 57.176,60.970 57.644,60.738 57.733 C 60.505 57.823,60.315 58.047,60.315 58.231 C 60.315 58.603,58.496 61.307,58.140 61.465 C 58.016 61.520,57.914 61.692,57.914 61.848 C 57.914 62.108,56.213 64.789,55.514 65.630 C 55.347 65.830,55.055 66.337,54.864 66.755 C 54.673 67.174,54.413 67.517,54.286 67.517 C 54.158 67.517,53.968 67.786,53.864 68.115 C 53.760 68.444,53.514 68.884,53.319 69.093 C 53.123 69.301,52.423 70.281,51.763 71.270 C 51.103 72.259,50.461 73.113,50.338 73.168 C 50.214 73.223,50.113 73.390,50.113 73.538 C 50.113 73.773,47.261 78.219,46.553 79.089 C 46.410 79.264,46.119 79.737,45.907 80.139 C 45.695 80.541,45.440 80.938,45.341 81.020 C 45.242 81.103,44.621 81.980,43.961 82.971 C 43.301 83.961,42.659 84.816,42.536 84.871 C 42.412 84.926,42.311 85.089,42.311 85.234 C 42.311 85.489,39.351 90.109,38.722 90.836 C 38.549 91.037,38.251 91.543,38.060 91.962 C 37.869 92.381,37.616 92.723,37.498 92.723 C 37.379 92.723,37.114 93.128,36.909 93.623 C 36.704 94.119,36.433 94.524,36.307 94.524 C 36.181 94.524,35.853 94.996,35.579 95.574 C 35.305 96.152,34.952 96.624,34.795 96.624 C 34.637 96.624,34.509 96.753,34.509 96.912 C 34.509 97.185,31.583 101.774,30.920 102.539 C 30.747 102.739,30.449 103.246,30.258 103.665 C 30.067 104.083,29.814 104.426,29.696 104.426 C 29.577 104.426,29.312 104.831,29.107 105.326 C 28.902 105.821,28.625 106.227,28.491 106.227 C 28.357 106.227,28.172 106.465,28.079 106.758 C 27.929 107.232,25.422 110.915,24.620 111.840 C 24.447 112.040,24.306 112.279,24.306 112.373 C 24.306 112.548,22.443 115.395,21.905 116.043 C 21.739 116.243,21.447 116.749,21.256 117.168 C 21.065 117.587,20.805 117.929,20.677 117.929 C 20.550 117.929,20.360 118.199,20.256 118.528 C 20.151 118.857,19.906 119.297,19.710 119.505 C 19.515 119.714,18.815 120.693,18.155 121.682 C 17.494 122.672,16.853 123.526,16.729 123.581 C 16.605 123.636,16.504 123.808,16.504 123.963 C 16.504 124.224,14.802 126.905,14.103 127.746 C 13.937 127.946,13.645 128.452,13.454 128.871 C 13.263 129.290,13.003 129.632,12.875 129.632 C 12.748 129.632,12.558 129.902,12.454 130.231 C 12.349 130.560,12.104 130.999,11.908 131.206 C 11.399 131.744,9.792 134.187,9.537 134.809 C 9.419 135.098,9.207 135.334,9.068 135.334 C 8.928 135.334,8.629 135.806,8.402 136.384 C 8.175 136.962,7.899 137.434,7.789 137.434 C 7.678 137.434,7.068 138.278,6.434 139.310 C 5.800 140.341,5.106 141.364,4.891 141.582 C 4.677 141.800,4.501 142.094,4.501 142.236 C 4.501 142.377,4.332 142.674,4.126 142.897 C 3.640 143.420,1.800 146.110,1.800 146.298 C 1.800 146.377,1.395 147.001,0.900 147.685 C -0.302 149.345,-0.302 150.730,0.900 152.390 C 1.395 153.074,1.800 153.698,1.800 153.777 C 1.800 153.947,3.670 156.722,3.931 156.939 C 4.030 157.022,4.285 157.418,4.497 157.821 C 4.709 158.223,5.005 158.695,5.155 158.871 C 5.801 159.625,8.702 164.192,8.702 164.454 C 8.702 164.612,8.842 164.741,9.012 164.741 C 9.182 164.741,9.419 164.977,9.537 165.266 C 9.792 165.888,11.399 168.331,11.908 168.869 C 12.104 169.076,12.349 169.515,12.454 169.844 C 12.558 170.173,12.748 170.443,12.875 170.443 C 13.003 170.443,13.263 170.785,13.454 171.204 C 13.645 171.623,13.937 172.129,14.103 172.329 C 14.802 173.170,16.504 175.852,16.504 176.112 C 16.504 176.267,16.605 176.439,16.729 176.494 C 16.853 176.549,17.494 177.403,18.155 178.393 C 18.815 179.382,19.515 180.361,19.710 180.570 C 19.906 180.778,20.151 181.218,20.256 181.547 C 20.360 181.876,20.550 182.146,20.677 182.146 C 20.805 182.146,21.065 182.488,21.256 182.907 C 21.447 183.326,21.739 183.832,21.905 184.032 C 22.443 184.680,24.306 187.527,24.306 187.702 C 24.306 187.796,24.447 188.035,24.620 188.235 C 25.422 189.160,27.929 192.843,28.079 193.317 C 28.172 193.610,28.357 193.848,28.491 193.848 C 28.625 193.848,28.902 194.254,29.107 194.749 C 29.312 195.244,29.577 195.649,29.696 195.649 C 29.814 195.649,30.067 195.992,30.258 196.410 C 30.449 196.829,30.747 197.336,30.920 197.536 C 31.583 198.301,34.509 202.890,34.509 203.164 C 34.509 203.322,34.637 203.451,34.795 203.451 C 34.952 203.451,35.305 203.923,35.579 204.501 C 35.853 205.079,36.181 205.551,36.307 205.551 C 36.433 205.551,36.704 205.956,36.909 206.452 C 37.114 206.947,37.379 207.352,37.498 207.352 C 37.616 207.352,37.869 207.694,38.060 208.113 C 38.251 208.532,38.549 209.038,38.722 209.239 C 39.351 209.966,42.311 214.586,42.311 214.841 C 42.311 214.986,42.412 215.149,42.536 215.204 C 42.659 215.259,43.301 216.114,43.961 217.104 C 44.621 218.095,45.242 218.972,45.341 219.055 C 45.440 219.137,45.695 219.534,45.907 219.936 C 46.119 220.338,46.410 220.811,46.553 220.986 C 47.261 221.856,50.113 226.302,50.113 226.537 C 50.113 226.685,50.214 226.852,50.338 226.907 C 50.461 226.962,51.103 227.816,51.763 228.805 C 52.423 229.794,53.123 230.774,53.319 230.982 C 53.514 231.191,53.760 231.631,53.864 231.960 C 53.968 232.289,54.180 232.558,54.334 232.558 C 54.488 232.558,54.615 232.727,54.618 232.933 C 54.620 233.140,54.889 233.646,55.217 234.059 C 56.250 235.362,57.914 237.934,57.914 238.227 C 57.914 238.383,58.016 238.555,58.140 238.610 C 58.496 238.768,60.315 241.472,60.315 241.844 C 60.315 242.028,60.505 242.252,60.738 242.342 C 60.970 242.431,61.324 242.899,61.524 243.382 C 61.724 243.866,61.985 244.261,62.104 244.261 C 62.222 244.261,62.475 244.604,62.666 245.023 C 62.857 245.441,63.155 245.948,63.327 246.148 C 63.500 246.348,64.103 247.254,64.666 248.162 C 65.230 249.070,65.798 249.951,65.929 250.120 C 66.935 251.418,68.117 253.270,68.117 253.547 C 68.117 253.731,68.320 253.960,68.567 254.055 C 68.815 254.150,69.017 254.390,69.017 254.589 C 69.017 254.788,69.269 255.221,69.577 255.551 C 69.885 255.882,70.308 256.472,70.518 256.864 C 70.727 257.256,71.016 257.720,71.159 257.896 C 71.852 258.744,73.518 261.384,73.518 261.633 C 73.518 261.788,73.620 261.960,73.743 262.016 C 74.081 262.166,75.919 264.869,75.919 265.215 C 75.919 265.381,76.020 265.561,76.144 265.616 C 76.268 265.671,77.177 266.932,78.164 268.417 C 79.152 269.902,80.067 271.253,80.199 271.418 C 80.330 271.583,81.173 272.866,82.071 274.269 C 82.969 275.671,83.808 276.957,83.937 277.126 C 84.066 277.295,84.979 278.646,85.965 280.127 C 86.952 281.609,87.864 282.866,87.991 282.921 C 88.118 282.976,88.222 283.142,88.222 283.291 C 88.222 283.512,90.926 287.749,91.753 288.822 C 91.880 288.987,92.415 289.797,92.942 290.623 C 94.150 292.514,95.179 294.004,95.601 294.472 C 95.780 294.671,95.983 294.976,96.051 295.148 C 96.119 295.320,96.849 296.493,97.674 297.754 L 99.175 300.047 199.967 299.986 C 300.417 299.925,300.761 299.923,301.093 299.325 C 301.276 298.995,301.539 298.642,301.678 298.540 C 301.816 298.439,302.086 298.090,302.278 297.766 C 302.907 296.699,303.935 295.130,304.218 294.805 C 304.370 294.629,304.668 294.157,304.881 293.755 C 305.093 293.352,305.347 292.956,305.446 292.873 C 305.723 292.643,307.577 289.876,307.577 289.694 C 307.577 289.605,307.914 289.090,308.327 288.549 C 308.740 288.008,309.077 287.409,309.077 287.218 C 309.077 287.028,309.217 286.872,309.387 286.872 C 309.557 286.872,309.794 286.635,309.912 286.347 C 310.148 285.773,311.811 283.212,312.105 282.971 C 312.206 282.888,312.462 282.492,312.674 282.089 C 312.886 281.687,313.176 281.215,313.319 281.039 C 314.067 280.121,316.879 275.717,316.879 275.464 C 316.879 275.301,317.019 275.169,317.189 275.169 C 317.359 275.169,317.596 274.932,317.714 274.644 C 317.949 274.070,319.613 271.509,319.907 271.268 C 320.008 271.185,320.264 270.789,320.476 270.386 C 320.688 269.984,320.978 269.512,321.121 269.336 C 321.869 268.418,324.681 264.014,324.681 263.761 C 324.681 263.599,324.820 263.466,324.989 263.466 C 325.158 263.466,325.427 263.162,325.586 262.791 C 325.746 262.419,326.489 261.238,327.238 260.165 C 327.986 259.092,328.726 258.012,328.882 257.764 C 329.037 257.517,329.911 256.198,330.824 254.833 C 331.736 253.469,332.483 252.234,332.483 252.090 C 332.483 251.945,332.686 251.749,332.933 251.654 C 333.181 251.559,333.383 251.333,333.383 251.152 C 333.383 250.971,333.721 250.380,334.134 249.839 C 334.546 249.298,334.884 248.748,334.884 248.617 C 334.884 248.486,335.120 248.199,335.409 247.980 C 335.882 247.620,335.844 247.580,335.021 247.571 C 334.179 247.563,331.583 245.451,331.583 244.775 C 331.583 244.236,332.755 244.648,333.533 245.461 C 334.008 245.956,334.641 246.362,334.940 246.362 C 335.805 246.362,335.603 245.088,334.584 244.111 C 334.089 243.637,333.683 243.071,333.683 242.855 C 333.683 242.075,334.527 242.488,335.874 243.928 C 336.906 245.031,337.289 245.282,337.421 244.939 C 337.726 244.144,336.932 242.461,336.249 242.456 C 335.384 242.450,334.765 241.996,335.032 241.564 C 335.172 241.337,335.597 241.268,336.158 241.380 C 337.021 241.553,337.052 241.523,336.884 240.686 C 336.773 240.127,336.858 239.690,337.120 239.472 C 337.449 239.199,337.572 239.327,337.742 240.121 C 338.148 242.020,339.268 242.472,340.009 241.035 C 340.243 240.581,340.502 240.143,340.585 240.060 C 341.041 239.605,342.686 237.067,342.686 236.817 C 342.686 236.656,342.888 236.446,343.136 236.351 C 343.383 236.256,343.586 236.035,343.586 235.861 C 343.586 235.611,345.814 232.145,346.962 230.609 C 347.948 229.291,350.488 225.287,350.488 225.051 C 350.488 224.889,350.627 224.756,350.797 224.756 C 350.968 224.756,351.204 224.520,351.322 224.231 C 351.510 223.775,354.110 219.743,354.758 218.905 C 355.620 217.789,358.290 213.589,358.290 213.348 C 358.290 213.186,358.429 213.053,358.599 213.053 C 358.770 213.053,359.006 212.817,359.124 212.528 C 359.312 212.072,361.912 208.040,362.560 207.202 C 363.376 206.145,366.092 201.892,366.092 201.670 C 366.092 201.522,366.196 201.355,366.323 201.300 C 366.450 201.245,367.361 199.988,368.348 198.507 C 369.335 197.025,370.248 195.675,370.376 195.506 C 370.505 195.337,371.345 194.051,372.243 192.648 C 373.141 191.245,373.981 189.959,374.110 189.790 C 375.141 188.436,376.294 186.645,376.294 186.398 C 376.294 186.232,376.395 186.052,376.519 185.996 C 376.643 185.941,377.857 184.209,379.217 182.146 C 380.578 180.083,381.793 178.256,381.918 178.087 C 383.106 176.484,384.096 174.941,384.096 174.695 C 384.096 174.529,384.197 174.349,384.321 174.294 C 384.631 174.156,391.898 163.280,391.898 162.953 C 391.898 162.809,392.002 162.646,392.129 162.591 C 392.694 162.346,399.773 151.318,399.911 150.467 C 399.996 149.946,399.900 149.197,399.697 148.803 C 399.117 147.674,392.373 137.596,392.123 137.484 C 391.999 137.429,391.898 137.266,391.898 137.122 C 391.898 136.796,384.631 125.919,384.321 125.781 C 384.197 125.726,384.096 125.546,384.096 125.380 C 384.096 125.134,383.106 123.591,381.918 121.988 C 381.793 121.819,380.578 119.992,379.217 117.929 C 377.857 115.866,376.643 114.134,376.519 114.079 C 376.395 114.024,376.294 113.843,376.294 113.677 C 376.294 113.430,375.141 111.639,374.110 110.285 C 373.981 110.116,373.141 108.830,372.243 107.427 C 371.345 106.024,370.498 104.741,370.361 104.576 C 370.225 104.411,369.854 103.837,369.538 103.301 C 369.222 102.764,368.857 102.326,368.727 102.326 C 368.598 102.326,368.492 102.179,368.492 102.000 C 368.492 101.635,366.668 98.931,366.317 98.775 C 366.193 98.720,366.092 98.553,366.092 98.405 C 366.092 98.187,363.468 94.071,362.565 92.873 C 362.441 92.708,361.532 91.358,360.546 89.872 C 359.560 88.387,358.649 87.127,358.521 87.072 C 358.394 87.017,358.290 86.850,358.290 86.702 C 358.290 86.480,355.574 82.227,354.758 81.170 C 354.110 80.332,351.510 76.300,351.322 75.844 C 351.204 75.555,350.968 75.319,350.797 75.319 C 350.627 75.319,350.488 75.186,350.488 75.024 C 350.488 74.788,347.948 70.784,346.962 69.466 C 346.052 68.249,343.659 64.567,343.500 64.141 C 343.393 63.852,343.165 63.616,342.995 63.616 C 342.825 63.616,342.686 63.469,342.686 63.290 C 342.686 62.925,340.861 60.221,340.510 60.065 C 340.386 60.010,340.285 59.844,340.285 59.695 C 340.285 59.458,337.424 55.000,336.716 54.135 C 336.569 53.955,336.228 53.381,335.958 52.860 C 335.689 52.339,335.337 51.913,335.176 51.913 C 335.015 51.913,334.884 51.757,334.884 51.566 C 334.884 51.375,334.570 50.802,334.186 50.291 C 333.803 49.780,333.402 49.126,333.296 48.837 C 333.189 48.548,332.963 48.312,332.793 48.312 C 332.622 48.312,332.483 48.179,332.483 48.017 C 332.483 47.855,331.736 46.606,330.824 45.242 C 329.911 43.877,329.037 42.558,328.882 42.311 C 328.726 42.063,327.986 40.983,327.238 39.910 C 326.489 38.837,325.746 37.656,325.586 37.284 C 325.427 36.913,325.158 36.609,324.989 36.609 C 324.820 36.609,324.681 36.476,324.681 36.314 C 324.681 36.061,321.869 31.657,321.121 30.739 C 320.978 30.563,320.688 30.091,320.476 29.689 C 320.264 29.286,320.008 28.890,319.907 28.807 C 319.613 28.566,317.949 26.005,317.714 25.431 C 317.596 25.143,317.359 24.906,317.189 24.906 C 317.019 24.906,316.879 24.774,316.879 24.611 C 316.879 24.358,314.067 19.954,313.319 19.036 C 313.176 18.860,312.886 18.388,312.674 17.986 C 312.462 17.583,312.206 17.187,312.105 17.104 C 311.811 16.863,310.148 14.302,309.912 13.728 C 309.794 13.440,309.557 13.203,309.387 13.203 C 309.217 13.203,309.077 13.047,309.077 12.857 C 309.077 12.666,308.740 12.067,308.327 11.526 C 307.914 10.985,307.577 10.470,307.577 10.381 C 307.577 10.199,305.723 7.432,305.446 7.202 C 305.347 7.119,305.093 6.723,304.881 6.320 C 304.668 5.918,304.370 5.446,304.218 5.270 C 303.935 4.945,302.907 3.376,302.278 2.309 C 302.086 1.985,301.816 1.636,301.678 1.535 C 301.539 1.433,301.276 1.080,301.093 0.750 C 300.761 0.152,300.417 0.150,199.967 0.089 L 99.175 0.028 97.674 2.321 M122.731 49.660 C 122.731 51.909,122.794 52.193,123.331 52.363 C 124.506 52.736,123.903 53.113,122.131 53.113 C 120.302 53.113,119.715 52.679,121.080 52.336 C 121.775 52.162,121.830 52.016,121.830 50.370 C 121.830 48.704,121.794 48.611,121.250 48.902 C 119.962 49.591,119.966 48.672,121.256 47.587 C 122.538 46.508,122.731 46.779,122.731 49.660 M128.040 47.536 C 129.845 49.088,128.826 53.413,126.655 53.413 C 125.003 53.413,123.930 51.080,124.549 48.835 C 125.094 46.861,126.603 46.300,128.040 47.536 M132.956 47.689 C 134.436 49.169,134.075 52.392,132.349 53.107 C 130.594 53.834,129.332 52.567,129.332 50.078 C 129.332 47.161,131.198 45.931,132.956 47.689 M126.092 48.180 C 124.627 49.213,125.665 52.966,127.157 52.031 C 127.921 51.552,128.025 49.215,127.321 48.354 C 126.813 47.731,126.742 47.721,126.092 48.180 M131.033 48.088 C 129.793 48.995,130.191 52.213,131.543 52.213 C 132.399 52.213,132.633 51.729,132.633 49.959 C 132.633 48.228,131.944 47.422,131.033 48.088 M253.669 59.666 C 254.131 60.177,254.173 66.456,254.241 145.262 L 254.314 230.308 265.791 230.386 L 277.269 230.465 277.269 152.877 C 277.269 83.916,277.320 75.191,277.727 74.404 L 278.185 73.518 288.581 73.518 C 297.834 73.518,299.038 73.573,299.526 74.015 C 300.055 74.494,300.075 77.327,300.075 152.488 L 300.075 230.465 311.703 230.386 L 323.331 230.308 323.402 185.146 C 323.441 160.308,323.474 134.154,323.477 127.028 C 323.480 115.653,323.538 114.014,323.952 113.600 C 324.770 112.782,344.559 112.901,345.386 113.728 C 345.982 114.324,345.986 114.729,345.986 172.693 L 345.986 231.058 242.911 231.058 L 139.835 231.058 139.835 154.560 C 139.835 85.417,139.880 78.017,140.307 77.591 C 141.087 76.810,161.137 76.887,161.849 77.673 C 162.314 78.188,162.355 83.697,162.420 154.268 L 162.491 230.308 173.874 230.386 C 182.781 230.448,185.309 230.383,185.497 230.086 C 185.629 229.878,185.737 199.392,185.738 162.341 C 185.738 125.289,185.740 89.143,185.743 82.017 C 185.746 70.641,185.804 69.003,186.218 68.589 C 186.847 67.959,206.901 67.870,207.747 68.492 C 208.225 68.843,208.262 74.004,208.330 149.587 L 208.402 230.308 219.955 230.308 L 231.508 230.308 231.580 145.086 C 231.647 65.247,231.684 59.841,232.162 59.490 C 233.099 58.802,253.035 58.965,253.669 59.666 M128.714 92.405 C 129.143 92.677,126.719 98.150,125.963 98.617 C 125.139 99.126,125.300 98.017,126.350 95.944 C 127.791 93.101,127.804 93.323,126.199 93.323 C 124.875 93.323,124.326 92.998,124.681 92.423 C 124.913 92.049,128.128 92.035,128.714 92.405 M133.174 92.779 C 133.248 93.170,133.010 93.306,132.129 93.379 C 130.749 93.493,130.238 94.524,131.561 94.524 C 131.986 94.524,132.603 94.794,132.933 95.124 C 134.667 96.858,132.053 99.753,130.065 98.299 C 129.308 97.745,129.664 97.423,131.061 97.396 C 132.835 97.362,132.767 95.647,130.983 95.424 C 129.727 95.267,129.355 93.642,130.310 92.483 C 130.788 91.902,133.052 92.136,133.174 92.779 M63.691 133.579 C 64.295 133.896,64.369 134.461,63.871 134.958 C 63.612 135.218,63.315 135.193,62.668 134.859 C 62.027 134.527,61.659 134.496,61.213 134.735 C 60.200 135.277,60.536 135.907,62.240 136.660 C 64.662 137.731,65.196 139.282,63.739 141.012 C 62.782 142.150,60.292 142.349,59.098 141.382 C 58.141 140.607,58.496 139.686,59.644 139.969 C 61.647 140.463,62.010 140.473,62.363 140.049 C 62.915 139.383,62.484 138.703,61.264 138.312 C 59.601 137.780,58.815 136.920,58.815 135.634 C 58.815 133.438,61.368 132.362,63.691 133.579 M106.302 133.579 C 107.583 134.251,106.586 135.456,105.223 134.883 C 104.596 134.619,104.109 134.582,103.755 134.772 C 102.856 135.253,103.166 135.930,104.557 136.526 C 107.197 137.658,107.833 139.250,106.350 141.012 C 105.392 142.150,102.902 142.349,101.709 141.382 C 100.751 140.607,101.107 139.686,102.254 139.969 C 104.460 140.513,104.667 140.506,104.999 139.886 C 105.403 139.132,104.846 138.475,103.567 138.194 C 101.537 137.748,100.693 135.402,102.044 133.964 C 102.999 132.947,104.786 132.786,106.302 133.579 M34.050 135.784 C 34.815 137.187,35.490 138.335,35.550 138.335 C 35.611 138.335,36.286 137.187,37.051 135.784 C 38.310 133.474,38.525 133.233,39.326 133.233 L 40.210 133.233 40.210 137.584 L 40.210 141.935 39.460 141.935 C 38.714 141.935,38.710 141.918,38.701 139.160 L 38.692 136.384 37.685 138.185 C 35.741 141.665,35.272 141.697,33.602 138.469 L 32.558 136.451 32.472 139.212 L 32.385 141.973 31.571 141.879 L 30.758 141.785 30.673 137.900 C 30.575 133.371,30.607 133.233,31.774 133.233 C 32.576 133.233,32.791 133.474,34.050 135.784 M46.306 134.959 C 47.349 136.905,47.368 136.905,48.424 134.883 C 49.210 133.379,49.376 133.233,50.299 133.233 C 51.585 133.233,51.587 133.223,49.806 136.079 C 48.464 138.232,48.312 138.651,48.312 140.205 C 48.312 141.928,48.308 141.935,47.412 141.935 C 46.520 141.935,46.512 141.919,46.512 140.279 C 46.512 139.001,46.329 138.333,45.710 137.353 C 45.269 136.655,44.525 135.434,44.056 134.640 L 43.205 133.197 44.333 133.290 C 45.354 133.374,45.542 133.534,46.306 134.959 M69.617 134.884 C 69.617 136.087,69.730 136.534,70.031 136.534 C 70.259 136.534,71.006 135.791,71.692 134.884 C 72.782 133.440,73.068 133.233,73.978 133.233 C 75.288 133.233,75.306 133.157,73.498 135.329 L 71.978 137.156 73.498 139.208 C 75.251 141.572,75.340 141.935,74.163 141.935 C 73.474 141.935,73.031 141.584,71.892 140.135 C 71.114 139.145,70.284 138.335,70.048 138.335 C 69.722 138.335,69.617 138.772,69.617 140.135 L 69.617 141.935 68.717 141.935 L 67.817 141.935 67.817 137.584 L 67.817 133.233 68.717 133.233 C 69.608 133.233,69.617 133.250,69.617 134.884 M80.570 137.584 L 80.570 141.785 79.595 141.879 L 78.620 141.974 78.620 137.584 L 78.620 133.195 79.595 133.289 L 80.570 133.383 80.570 137.584 M86.422 136.819 L 86.422 140.405 88.147 140.495 C 89.642 140.573,89.872 140.665,89.872 141.185 C 89.872 141.733,89.644 141.793,87.247 141.872 L 84.621 141.959 84.621 137.596 L 84.621 133.233 85.521 133.233 L 86.422 133.233 86.422 136.819 M95.124 136.834 L 95.124 140.435 96.774 140.435 C 98.341 140.435,98.425 140.474,98.425 141.197 L 98.425 141.959 95.799 141.872 L 93.173 141.785 93.090 137.509 L 93.007 133.233 94.065 133.233 L 95.124 133.233 95.124 136.834 M128.282 137.734 C 128.282 138.020,127.899 138.239,127.235 138.335 C 125.836 138.535,125.551 139.535,126.893 139.535 C 128.545 139.535,129.295 141.518,128.120 142.779 C 127.480 143.467,125.681 143.680,124.868 143.165 C 124.132 142.699,124.795 142.288,126.016 142.452 C 127.097 142.597,127.219 142.542,127.395 141.840 C 127.670 140.746,127.364 140.435,126.014 140.435 C 124.690 140.435,124.604 140.216,125.151 138.244 C 125.495 137.005,128.282 136.551,128.282 137.734 M132.270 137.327 C 134.753 137.992,134.173 143.436,131.618 143.436 C 129.988 143.436,129.532 142.864,129.390 140.641 C 129.219 137.953,130.236 136.782,132.270 137.327 M130.855 138.458 C 129.810 139.717,130.286 142.536,131.543 142.536 C 132.399 142.536,132.633 142.051,132.633 140.282 C 132.633 138.497,131.655 137.494,130.855 138.458 M128.120 183.102 C 129.025 184.074,128.874 184.901,127.506 186.454 L 126.281 187.847 127.506 187.847 C 128.396 187.847,128.732 187.970,128.732 188.297 C 128.732 188.654,128.299 188.747,126.632 188.747 C 124.133 188.747,124.131 188.739,126.037 186.690 C 127.594 185.016,127.945 183.869,127.009 183.510 C 126.668 183.379,126.313 183.524,125.986 183.928 C 125.442 184.600,124.971 184.716,124.683 184.249 C 123.949 183.062,127.103 182.010,128.120 183.102 M133.178 182.971 C 133.108 183.340,132.739 183.524,131.937 183.590 C 130.558 183.704,130.457 184.635,131.807 184.791 C 134.518 185.104,133.915 188.864,131.183 188.687 C 129.244 188.562,128.980 187.630,130.895 187.670 C 132.820 187.710,132.899 185.986,130.983 185.746 C 129.735 185.590,129.356 183.971,130.299 182.821 C 130.808 182.199,133.300 182.328,133.178 182.971 M133.098 228.251 C 134.709 229.990,133.708 233.764,131.637 233.754 C 129.966 233.746,129.332 232.841,129.332 230.464 C 129.332 227.788,131.492 226.519,133.098 228.251 M130.935 228.587 C 129.874 229.263,130.261 232.641,131.419 232.809 C 132.312 232.939,132.623 232.426,132.629 230.813 C 132.636 228.822,131.961 227.935,130.935 228.587 M153.584 240.019 C 153.647 240.440,153.897 240.660,154.311 240.660 C 156.224 240.660,156.498 242.472,154.860 244.297 L 153.682 245.611 151.415 243.374 L 149.149 241.137 149.818 240.408 C 151.585 238.486,153.328 238.306,153.584 240.019 M244.126 239.484 C 244.239 239.666,244.657 239.726,245.080 239.619 C 245.757 239.450,245.816 239.503,245.654 240.146 C 245.452 240.950,247.212 242.968,247.476 242.236 C 247.679 241.675,248.522 241.778,248.409 242.350 C 248.152 243.645,247.076 243.763,245.824 242.631 C 244.757 241.667,243.357 241.126,243.805 241.851 C 243.904 242.010,243.709 242.313,243.372 242.523 C 243.036 242.733,242.761 243.201,242.761 243.562 C 242.761 244.944,244.750 245.803,245.074 244.561 C 245.258 243.858,246.062 243.747,246.062 244.425 C 246.062 244.955,244.753 246.362,244.260 246.362 C 241.923 246.362,240.740 242.962,242.731 241.969 C 243.680 241.496,243.979 240.954,243.640 240.321 C 243.132 239.372,243.580 238.601,244.126 239.484 M199.850 239.878 C 199.850 240.108,199.647 240.374,199.400 240.469 C 199.152 240.564,198.950 240.863,198.950 241.133 C 198.950 241.490,199.094 241.561,199.475 241.393 C 200.913 240.757,201.796 241.055,201.892 242.207 C 201.984 243.314,201.219 244.261,200.233 244.261 C 199.615 244.261,199.794 243.445,200.450 243.274 C 200.818 243.178,201.050 242.865,201.050 242.464 C 201.050 242.104,200.949 241.860,200.825 241.920 C 200.701 241.980,200.213 242.223,199.740 242.459 C 198.096 243.280,197.210 240.982,198.754 239.901 C 199.542 239.349,199.850 239.343,199.850 239.878 M292.348 240.178 C 293.070 240.726,293.013 241.014,291.984 242.000 C 291.036 242.908,291.040 243.361,291.997 243.361 C 292.334 243.361,292.732 243.040,292.928 242.611 C 293.291 241.814,294.074 241.582,294.074 242.270 C 294.074 244.384,291.063 244.944,289.780 243.069 C 288.521 241.230,290.621 238.866,292.348 240.178 M150.924 240.526 C 150.292 241.288,151.543 242.412,152.244 241.712 C 153.000 240.956,152.881 240.060,152.025 240.060 C 151.632 240.060,151.137 240.270,150.924 240.526 M290.673 240.860 C 290.085 241.448,290.466 242.259,291.073 241.710 C 291.403 241.412,291.673 241.053,291.673 240.914 C 291.673 240.613,290.958 240.574,290.673 240.860 M288.987 243.314 C 291.427 245.715,291.329 245.406,290.076 246.774 C 288.979 247.971,288.262 248.127,287.405 247.351 C 286.861 246.859,286.852 246.871,287.156 247.671 C 288.122 250.212,285.474 251.911,283.548 249.986 C 281.762 248.200,283.583 245.376,285.785 246.518 C 286.511 246.895,286.527 246.883,286.254 246.165 C 285.823 245.032,285.906 244.599,286.706 243.799 C 287.418 243.087,287.423 243.056,286.856 242.752 C 286.248 242.427,286.037 241.260,286.586 241.260 C 286.759 241.260,287.839 242.184,288.987 243.314 M153.095 242.250 L 152.429 242.959 153.034 243.507 C 153.778 244.181,154.931 243.403,154.777 242.330 C 154.651 241.457,153.875 241.420,153.095 242.250 M197.449 242.450 C 197.449 242.609,197.179 242.884,196.849 243.061 C 196.085 243.470,196.016 244.423,196.774 244.105 C 198.424 243.411,199.550 243.739,199.550 244.912 C 199.550 245.745,198.202 247.001,197.569 246.758 C 197.123 246.587,197.166 246.472,197.890 245.894 C 198.814 245.158,198.705 244.350,197.751 244.860 C 195.884 245.860,194.482 244.227,195.949 242.761 C 196.576 242.133,197.449 241.953,197.449 242.450 M150.661 243.938 C 152.060 245.337,151.929 247.242,150.322 248.849 L 149.105 250.065 147.021 247.996 C 144.580 245.574,144.576 245.557,146.137 244.146 C 147.733 242.705,149.353 242.630,150.661 243.938 M146.886 244.738 L 146.047 245.515 147.608 247.064 L 149.168 248.612 149.903 247.770 C 151.793 245.604,148.991 242.788,146.886 244.738 M287.547 244.180 C 286.987 244.375,287.094 245.598,287.721 246.165 C 288.394 246.775,288.791 246.792,289.256 246.232 C 289.877 245.483,288.511 243.844,287.547 244.180 M331.800 246.428 C 333.946 248.555,333.979 248.664,332.866 249.932 C 331.825 251.118,330.768 251.148,329.689 250.021 C 328.717 249.007,328.636 247.713,329.487 246.807 L 330.092 246.163 329.487 245.616 C 328.746 244.945,328.714 244.561,329.399 244.561 C 329.684 244.561,330.764 245.401,331.800 246.428 M195.369 245.172 C 196.176 245.604,196.095 246.109,195.059 247.102 C 194.570 247.570,194.241 248.068,194.327 248.208 C 194.648 248.727,195.564 248.438,195.894 247.712 C 196.185 247.075,197.149 246.625,197.149 247.127 C 197.149 249.283,193.979 250.080,192.870 248.203 C 191.686 246.199,193.401 244.119,195.369 245.172 M242.223 245.972 C 243.580 247.298,243.575 247.256,242.544 248.431 C 240.885 250.321,239.049 249.234,240.348 247.131 C 241.161 245.815,240.573 245.273,239.624 246.463 C 238.851 247.432,238.560 247.472,238.560 246.610 C 238.560 244.687,240.551 244.340,242.223 245.972 M193.570 246.322 C 193.404 246.631,193.355 246.968,193.460 247.073 C 193.674 247.288,194.749 246.406,194.749 246.015 C 194.749 245.534,193.869 245.763,193.570 246.322 M240.946 247.588 C 240.559 248.312,240.735 248.613,241.397 248.359 C 241.898 248.167,242.047 246.962,241.571 246.962 C 241.412 246.962,241.131 247.243,240.946 247.588 M284.183 247.698 C 283.456 248.574,284.761 250.261,285.845 249.845 C 286.449 249.613,286.375 248.348,285.723 247.758 C 285.048 247.147,284.653 247.132,284.183 247.698 M329.982 247.462 C 329.216 248.228,330.896 250.357,331.724 249.670 C 331.977 249.460,332.183 249.056,332.183 248.772 C 332.183 247.806,330.588 246.856,329.982 247.462 M191.832 247.746 C 191.934 247.848,191.812 248.243,191.563 248.624 C 191.133 249.279,191.170 249.385,192.225 250.553 C 193.963 252.477,193.129 252.837,191.173 251.007 C 189.667 249.599,189.253 248.762,190.063 248.762 C 190.291 248.762,190.548 248.492,190.635 248.162 C 190.785 247.587,191.444 247.358,191.832 247.746 M238.672 248.528 C 238.933 248.945,238.806 249.239,238.007 250.063 C 237.105 250.994,237.070 251.096,237.606 251.236 C 238.301 251.418,238.577 251.257,239.242 250.286 C 239.777 249.503,240.323 250.043,239.958 250.995 C 239.142 253.121,235.559 252.280,235.559 249.962 C 235.559 248.197,237.814 247.158,238.672 248.528 M146.962 249.253 C 148.884 251.368,146.250 254.030,144.059 252.186 C 142.594 250.954,142.889 249.009,144.636 248.378 C 145.352 248.119,146.232 248.451,146.962 249.253 M282.509 250.134 C 285.093 252.731,285.041 253.149,282.197 252.641 C 281.385 252.496,280.248 252.297,279.670 252.198 L 278.620 252.019 280.045 253.476 C 281.465 254.929,281.815 255.664,281.087 255.664 C 280.482 255.664,276.568 251.569,276.806 251.184 C 276.925 250.991,277.427 250.908,277.968 250.991 C 278.491 251.072,279.730 251.224,280.720 251.329 L 282.521 251.521 281.095 250.171 C 280.311 249.429,279.670 248.673,279.670 248.492 C 279.670 247.711,280.679 248.295,282.509 250.134 M236.834 248.961 C 236.628 249.044,236.459 249.392,236.459 249.734 C 236.459 250.337,236.477 250.339,237.059 249.812 C 237.957 249.000,237.840 248.555,236.834 248.961 M144.211 249.855 C 143.959 250.512,144.809 251.763,145.507 251.763 C 146.493 251.763,146.880 250.975,146.315 250.114 C 145.751 249.252,144.502 249.098,144.211 249.855 M328.413 249.655 C 329.420 250.038,329.384 250.557,328.277 251.617 C 327.558 252.307,327.460 252.533,327.802 252.724 C 328.418 253.069,329.049 252.744,329.443 251.880 C 329.794 251.109,330.383 251.149,330.383 251.944 C 330.383 252.668,328.975 253.863,328.123 253.863 C 326.181 253.863,325.005 251.411,326.318 250.099 C 327.142 249.275,327.316 249.238,328.413 249.655 M234.192 250.629 C 234.448 250.996,234.659 251.604,234.659 251.980 C 234.659 252.356,234.827 252.664,235.034 252.665 C 235.240 252.666,235.933 252.812,236.573 252.990 C 238.502 253.525,237.365 254.387,235.387 253.889 C 233.629 253.446,233.150 253.807,234.189 254.793 C 235.008 255.571,235.152 256.109,234.628 256.433 C 234.264 256.658,230.158 252.748,230.158 252.177 C 230.158 250.719,233.386 249.480,234.192 250.629 M190.428 251.283 C 191.636 252.492,191.717 253.343,190.710 254.276 C 190.021 254.914,190.005 254.993,190.472 255.460 C 190.865 255.853,190.894 256.038,190.607 256.325 C 190.319 256.612,189.824 256.277,188.294 254.761 C 186.022 252.509,186.083 252.719,187.302 251.342 C 188.492 249.998,189.131 249.986,190.428 251.283 M327.113 250.543 C 326.898 250.676,326.770 251.020,326.827 251.307 C 326.923 251.784,326.979 251.777,327.476 251.226 C 328.044 250.597,327.792 250.124,327.113 250.543 M142.761 251.675 C 143.265 252.760,143.233 253.709,142.678 254.170 C 141.865 254.845,142.460 254.837,143.375 254.161 C 145.219 252.798,146.475 254.753,144.818 256.409 C 143.696 257.532,142.818 257.392,142.002 255.962 C 141.625 255.303,141.124 254.764,140.887 254.764 C 140.444 254.764,139.835 253.883,139.835 253.243 C 139.835 252.872,141.820 250.861,142.182 250.865 C 142.294 250.866,142.554 251.231,142.761 251.675 M231.890 251.659 C 231.429 252.121,231.443 252.194,232.099 252.709 C 232.976 253.400,233.065 253.398,233.447 252.685 C 234.120 251.427,232.916 250.633,231.890 251.659 M188.047 251.663 C 187.620 252.090,187.881 252.947,188.616 253.525 C 189.527 254.241,190.248 254.066,190.248 253.128 C 190.248 252.031,188.705 251.004,188.047 251.663 M324.199 251.912 C 324.514 252.150,324.781 252.741,324.799 253.240 C 324.828 254.057,324.962 254.170,326.270 254.484 C 328.321 254.977,327.932 255.538,325.626 255.416 C 323.575 255.308,323.450 255.436,324.518 256.551 C 325.046 257.102,325.177 257.447,324.978 257.767 C 324.755 258.126,324.251 257.770,322.422 255.964 L 320.145 253.713 321.401 252.588 C 322.755 251.376,323.312 251.241,324.199 251.912 M140.869 252.989 C 140.585 253.448,141.201 253.979,141.765 253.763 C 142.024 253.663,142.236 253.375,142.236 253.123 C 142.236 252.598,141.175 252.495,140.869 252.989 M322.143 253.122 C 321.561 253.567,321.562 253.578,322.193 254.209 C 323.040 255.057,323.854 254.756,323.726 253.643 C 323.616 252.688,322.984 252.481,322.143 253.122 M186.103 254.215 C 186.184 255.038,186.368 255.225,187.455 255.585 C 189.072 256.122,188.975 257.030,187.333 256.722 C 186.316 256.531,186.305 256.541,186.400 257.522 C 186.538 258.936,185.651 258.893,185.446 257.475 C 185.314 256.561,185.159 256.402,184.157 256.166 C 182.808 255.848,182.841 255.194,184.203 255.258 C 185.084 255.299,185.146 255.235,185.146 254.283 C 185.146 252.932,185.970 252.873,186.103 254.215 M140.739 255.589 C 141.944 256.723,142.264 257.464,141.548 257.464 C 141.335 257.464,140.663 256.995,140.054 256.421 C 138.883 255.316,138.035 255.276,138.035 256.326 C 138.035 256.655,138.440 257.302,138.935 257.764 C 139.833 258.603,140.135 259.565,139.500 259.565 C 139.316 259.565,138.523 258.892,137.738 258.068 L 136.311 256.572 137.248 255.519 C 138.453 254.165,139.242 254.181,140.739 255.589 M143.496 255.124 C 142.999 255.620,143.044 256.264,143.575 256.264 C 143.959 256.264,144.636 255.415,144.636 254.933 C 144.636 254.627,143.864 254.756,143.496 255.124 M181.845 255.297 C 181.845 255.425,181.434 255.981,180.930 256.532 C 179.739 257.836,180.437 259.247,181.690 258.069 C 182.338 257.460,183.346 257.247,183.346 257.718 C 183.346 257.857,183.076 258.216,182.746 258.515 C 182.026 259.166,181.985 259.658,182.608 260.175 C 182.996 260.498,183.225 260.410,184.035 259.624 C 185.716 257.995,186.060 258.903,184.419 260.639 L 183.042 262.097 180.795 259.865 L 178.548 257.633 179.809 256.348 C 180.965 255.171,181.845 254.716,181.845 255.297 M137.193 258.571 C 138.803 260.113,138.055 262.266,135.909 262.266 C 133.860 262.266,132.803 259.931,134.186 258.459 C 135.050 257.539,136.159 257.581,137.193 258.571 M134.959 258.989 C 133.820 259.652,134.879 261.514,136.281 261.314 C 137.228 261.180,137.336 260.268,136.509 259.388 C 135.746 258.576,135.692 258.562,134.959 258.989 M133.207 261.701 C 135.080 263.589,135.534 264.366,134.764 264.366 C 134.635 264.366,133.900 263.772,133.131 263.045 C 131.584 261.584,131.522 261.624,132.207 263.641 C 132.813 265.426,132.514 265.805,130.883 265.317 C 128.688 264.659,128.488 264.845,129.870 266.253 C 131.123 267.530,131.457 268.267,130.781 268.267 C 129.902 268.267,126.199 264.070,126.666 263.603 C 127.057 263.212,127.274 263.206,128.300 263.563 C 131.391 264.638,131.681 264.338,130.486 261.296 C 130.150 260.439,130.309 259.565,130.801 259.565 C 130.958 259.565,132.041 260.526,133.207 261.701 " stroke="none" fill="#040404" fill-rule="evenodd"></path><path id="path2" d="M125.837 47.413 C 123.811 48.221,124.468 53.113,126.602 53.113 C 127.944 53.113,128.582 52.139,128.582 50.092 C 128.582 47.796,127.506 46.746,125.837 47.413 M130.449 47.713 C 128.610 49.160,129.439 53.113,131.583 53.113 C 133.436 53.113,134.303 49.354,132.797 47.848 C 131.903 46.955,131.447 46.928,130.449 47.713 M120.930 48.162 C 120.146 48.996,120.421 49.195,121.282 48.416 C 121.809 47.938,121.830 48.014,121.830 50.345 C 121.830 52.623,121.789 52.779,121.155 52.902 C 120.784 52.973,121.223 53.039,122.131 53.049 C 123.038 53.058,123.578 52.989,123.331 52.895 C 122.570 52.605,122.440 52.147,122.435 49.737 C 122.430 47.154,122.151 46.862,120.930 48.162 M127.480 47.973 C 127.957 48.276,128.282 50.375,128.016 51.436 C 127.594 53.115,125.971 53.098,125.414 51.409 C 124.654 49.108,125.928 46.989,127.480 47.973 M132.638 48.321 C 133.191 49.354,132.884 51.927,132.151 52.411 C 130.622 53.422,129.188 49.783,130.494 48.208 C 131.065 47.520,132.243 47.582,132.638 48.321 M126.257 92.944 C 128.145 93.077,128.139 93.026,126.628 96.031 C 125.966 97.347,125.540 98.425,125.682 98.425 C 125.923 98.425,127.875 94.887,128.454 93.398 C 128.712 92.736,128.679 92.724,126.699 92.779 C 124.801 92.831,124.775 92.841,126.257 92.944 M130.430 92.948 C 129.904 93.806,130.111 95.270,130.746 95.182 C 131.716 95.048,132.634 95.646,132.629 96.410 C 132.621 97.513,132.152 97.947,131.004 97.914 C 130.415 97.898,130.009 98.006,130.101 98.154 C 130.367 98.585,131.838 98.468,132.566 97.957 C 133.982 96.966,133.233 94.824,131.470 94.824 C 129.974 94.824,130.447 93.103,131.989 92.940 L 133.083 92.824 131.826 92.774 C 131.134 92.746,130.506 92.824,130.430 92.948 M30.908 137.434 C 30.908 141.435,30.936 141.635,31.508 141.635 C 32.066 141.635,32.108 141.435,32.108 138.767 C 32.108 135.437,32.217 135.420,33.912 138.492 C 35.469 141.311,35.714 141.294,37.281 138.260 L 38.560 135.784 38.646 138.710 C 38.730 141.596,38.741 141.635,39.471 141.635 L 40.210 141.635 40.210 137.414 L 40.210 133.193 39.411 133.288 C 38.745 133.368,38.385 133.816,37.236 136.003 C 35.536 139.238,35.533 139.238,33.791 135.934 C 32.594 133.664,32.251 133.233,31.637 133.233 L 30.908 133.233 30.908 137.434 M43.811 133.484 C 43.811 133.645,44.419 134.762,45.161 135.967 C 46.354 137.902,46.512 138.359,46.512 139.896 C 46.512 141.551,46.548 141.635,47.262 141.635 C 47.965 141.635,48.012 141.538,48.012 140.092 C 48.012 138.772,48.230 138.187,49.512 136.055 C 51.232 133.199,51.244 133.159,50.340 133.287 C 49.873 133.354,49.346 133.954,48.615 135.250 C 47.363 137.470,47.331 137.469,46.113 135.176 C 45.248 133.546,43.811 132.490,43.811 133.484 M59.890 133.868 C 58.354 135.075,58.848 136.771,61.065 137.905 C 62.978 138.884,63.346 139.462,62.559 140.249 C 61.955 140.853,61.141 140.867,60.029 140.292 C 59.266 139.898,59.154 139.901,58.993 140.320 C 58.533 141.517,60.969 142.257,62.642 141.427 C 64.925 140.294,64.726 138.060,62.245 136.962 C 59.562 135.776,59.716 134.197,62.478 134.564 C 63.641 134.718,63.916 134.668,63.916 134.304 C 63.916 133.153,61.176 132.856,59.890 133.868 M68.117 137.434 C 68.117 141.435,68.146 141.635,68.717 141.635 C 69.245 141.635,69.317 141.435,69.317 139.976 C 69.317 137.318,70.359 137.449,72.367 140.360 C 72.998 141.275,73.455 141.635,73.983 141.635 C 74.952 141.635,74.935 141.573,73.421 139.587 C 72.708 138.651,72.025 137.717,71.905 137.512 C 71.772 137.287,72.286 136.401,73.209 135.262 C 74.633 133.506,74.689 133.377,74.060 133.279 C 73.378 133.173,73.149 133.375,71.239 135.770 C 69.942 137.397,69.317 137.113,69.317 134.893 C 69.317 133.433,69.245 133.233,68.717 133.233 C 68.146 133.233,68.117 133.433,68.117 137.434 M78.920 137.434 L 78.920 141.635 79.670 141.635 L 80.420 141.635 80.420 137.434 L 80.420 133.233 79.670 133.233 L 78.920 133.233 78.920 137.434 M84.921 137.434 L 84.921 141.635 87.322 141.635 C 90.345 141.635,90.914 140.827,87.997 140.675 L 86.272 140.585 86.187 136.909 C 86.109 133.481,86.063 133.233,85.512 133.233 C 84.952 133.233,84.921 133.455,84.921 137.434 M93.323 137.434 L 93.323 141.635 95.724 141.635 C 97.658 141.635,98.125 141.548,98.125 141.185 C 98.125 140.840,97.741 140.735,96.474 140.735 L 94.824 140.735 94.824 136.984 L 94.824 133.233 94.074 133.233 L 93.323 133.233 93.323 137.434 M102.500 133.868 C 101.015 135.036,101.464 136.776,103.518 137.816 C 105.500 138.820,105.878 139.359,105.157 140.157 C 104.525 140.855,103.793 140.889,102.605 140.275 C 101.820 139.869,101.694 139.867,101.543 140.260 C 101.077 141.477,103.570 142.261,105.253 141.427 C 107.528 140.298,107.217 137.811,104.687 136.912 C 102.220 136.036,102.425 134.310,104.975 134.489 C 106.530 134.599,107.028 134.009,105.781 133.535 C 104.534 133.061,103.377 133.178,102.500 133.868 M125.639 137.659 C 124.907 138.943,125.133 140.135,126.108 140.135 C 127.270 140.135,127.832 140.583,127.832 141.509 C 127.832 142.417,127.103 142.929,126.034 142.772 C 125.081 142.632,124.802 142.945,125.606 143.254 C 126.484 143.591,127.123 143.440,127.780 142.741 C 128.950 141.495,128.449 139.978,126.762 139.661 C 125.207 139.370,125.386 138.226,127.007 138.091 C 127.626 138.040,128.132 137.871,128.132 137.716 C 128.132 137.384,125.826 137.331,125.639 137.659 M130.480 137.746 C 129.203 138.491,129.107 141.443,130.317 142.761 C 131.719 144.287,133.533 142.975,133.533 140.435 C 133.533 138.124,132.059 136.825,130.480 137.746 M132.874 140.270 C 132.974 142.162,132.635 142.836,131.583 142.836 C 129.979 142.836,129.393 139.440,130.801 138.300 C 131.976 137.349,132.759 138.093,132.874 140.270 M125.656 183.070 C 125.368 183.238,125.131 183.592,125.131 183.857 C 125.131 184.286,125.195 184.282,125.707 183.818 C 127.881 181.850,128.467 184.511,126.351 186.748 C 124.454 188.754,124.453 188.747,126.632 188.747 C 127.632 188.747,128.432 188.614,128.432 188.447 C 128.432 188.282,127.892 188.147,127.232 188.147 C 126.572 188.147,126.032 188.066,126.032 187.968 C 126.032 187.870,126.572 187.175,127.232 186.425 C 129.195 184.195,128.021 181.693,125.656 183.070 M130.370 183.571 C 130.275 184.025,130.150 184.632,130.093 184.921 C 130.011 185.334,130.195 185.446,130.951 185.446 C 132.073 185.446,132.633 185.903,132.633 186.820 C 132.633 187.728,131.904 188.240,130.835 188.083 C 129.882 187.943,129.603 188.257,130.407 188.565 C 131.821 189.108,133.233 188.167,133.233 186.683 C 133.233 185.664,132.778 185.220,131.463 184.957 C 130.788 184.822,130.550 184.635,130.666 184.331 C 130.758 184.092,130.833 183.773,130.833 183.621 C 130.833 183.470,131.305 183.346,131.883 183.346 C 132.461 183.346,132.933 183.211,132.933 183.046 C 132.933 182.246,130.546 182.735,130.370 183.571 M130.014 228.569 C 128.758 230.487,129.705 233.458,131.573 233.458 C 132.883 233.458,133.533 232.583,133.533 230.821 C 133.533 227.997,131.318 226.579,130.014 228.569 M132.384 228.554 C 133.103 229.204,133.155 231.993,132.462 232.687 C 130.775 234.373,129.007 230.815,130.554 228.848 C 131.278 227.928,131.630 227.871,132.384 228.554 M150.544 240.001 C 150.100 240.464,149.737 240.975,149.737 241.136 C 149.737 241.541,153.127 244.861,153.541 244.861 C 153.941 244.861,155.739 242.873,155.739 242.430 C 155.739 241.718,155.071 240.960,154.444 240.960 C 153.971 240.960,153.669 240.692,153.430 240.060 C 152.971 238.845,151.677 238.818,150.544 240.001 M153.038 240.637 C 153.038 240.943,152.776 241.513,152.456 241.902 L 151.873 242.611 151.030 241.768 L 150.188 240.926 151.031 240.192 C 151.976 239.368,153.038 239.604,153.038 240.637 M243.767 239.760 C 243.873 240.008,244.042 240.413,244.141 240.660 C 244.831 242.375,248.162 243.828,248.162 242.413 C 248.162 242.203,247.997 242.224,247.700 242.471 C 247.041 243.018,245.069 241.138,245.344 240.225 C 245.493 239.728,245.454 239.681,245.139 239.981 C 244.828 240.277,244.630 240.246,244.161 239.831 C 243.711 239.432,243.619 239.416,243.767 239.760 M198.690 240.246 C 197.393 241.154,197.946 242.021,199.775 241.945 C 201.558 241.871,201.966 242.558,200.675 243.459 C 200.304 243.718,200.143 243.937,200.319 243.945 C 200.777 243.968,201.950 242.810,201.950 242.336 C 201.950 241.516,201.072 241.120,200.082 241.494 C 198.720 242.008,197.951 241.081,199.172 240.398 C 199.460 240.237,199.620 240.030,199.529 239.939 C 199.438 239.848,199.060 239.986,198.690 240.246 M337.196 240.832 L 337.370 241.904 336.202 241.696 C 335.398 241.553,335.127 241.585,335.334 241.799 C 335.499 241.970,335.971 242.155,336.384 242.210 C 336.927 242.283,337.222 242.583,337.452 243.293 C 337.827 244.453,338.230 244.265,337.986 243.045 C 337.834 242.283,337.885 242.217,338.498 242.377 C 338.969 242.500,339.113 242.448,338.964 242.208 C 338.846 242.017,338.569 241.860,338.349 241.860 C 337.906 241.860,337.584 241.219,337.584 240.336 C 337.584 240.019,337.458 239.760,337.303 239.760 C 337.148 239.760,337.100 240.241,337.196 240.832 M290.173 240.660 C 289.406 241.427,289.412 242.176,290.194 243.170 C 291.009 244.206,292.623 244.270,293.306 243.294 C 294.010 242.289,293.868 242.094,293.037 242.924 C 292.212 243.749,291.607 243.855,291.115 243.262 C 290.861 242.956,290.993 242.662,291.678 242.005 C 292.748 240.981,292.809 240.493,291.898 240.249 C 290.909 239.984,290.830 240.003,290.173 240.660 M291.973 240.960 C 291.973 241.125,291.703 241.530,291.373 241.860 C 291.043 242.191,290.638 242.461,290.473 242.461 C 290.139 242.461,290.058 241.174,290.373 240.860 C 290.687 240.546,291.973 240.626,291.973 240.960 M154.558 241.571 C 155.355 241.997,155.286 242.818,154.380 243.669 L 153.622 244.381 152.837 243.596 L 152.052 242.811 152.889 242.036 C 153.850 241.146,153.793 241.161,154.558 241.571 M286.572 241.766 C 286.572 241.879,286.854 242.273,287.200 242.641 L 287.829 243.310 287.050 243.820 C 285.180 245.046,287.313 248.310,289.292 247.251 C 289.611 247.080,289.872 246.794,289.872 246.614 C 289.872 246.399,289.721 246.414,289.426 246.658 C 288.209 247.669,286.138 245.615,287.054 244.306 C 287.672 243.424,287.989 243.488,289.164 244.735 C 289.722 245.326,290.310 245.765,290.471 245.711 C 290.633 245.656,289.879 244.700,288.797 243.586 C 286.863 241.594,286.572 241.356,286.572 241.766 M242.461 242.461 C 240.852 244.069,243.231 246.899,245.095 245.594 C 245.461 245.337,245.761 244.902,245.761 244.627 C 245.761 244.232,245.663 244.268,245.294 244.794 C 245.037 245.161,244.518 245.461,244.141 245.461 C 242.588 245.461,241.870 243.246,243.136 242.363 C 243.507 242.104,243.642 241.885,243.436 241.876 C 243.230 241.868,242.791 242.131,242.461 242.461 M196.128 242.853 C 194.928 243.730,195.624 244.721,197.374 244.627 C 199.129 244.534,199.500 245.042,198.293 245.888 C 197.931 246.141,197.703 246.415,197.786 246.498 C 198.127 246.839,199.250 245.679,199.250 244.985 C 199.250 244.086,198.541 243.757,197.474 244.160 C 195.978 244.725,195.355 243.848,196.624 242.963 C 196.995 242.704,197.156 242.485,196.982 242.476 C 196.807 242.468,196.423 242.637,196.128 242.853 M333.983 242.973 C 333.983 243.090,334.487 243.701,335.102 244.331 C 336.015 245.266,336.161 245.572,335.897 245.994 C 335.351 246.865,334.381 246.782,333.403 245.781 C 332.908 245.275,332.336 244.861,332.132 244.861 C 331.928 244.861,332.289 245.401,332.933 246.062 C 334.293 247.454,336.084 247.795,336.084 246.662 C 336.084 246.328,336.284 246.062,336.534 246.062 C 337.311 246.062,337.031 245.453,335.622 244.084 C 334.262 242.762,333.983 242.573,333.983 242.973 M147.187 243.622 C 146.692 243.930,145.985 244.509,145.617 244.910 L 144.947 245.638 146.990 247.666 L 149.033 249.693 150.285 248.334 C 152.039 246.431,151.756 244.560,149.555 243.516 C 148.347 242.942,148.276 242.946,147.187 243.622 M149.446 244.172 C 151.214 245.391,151.412 246.695,150.030 248.020 L 149.121 248.890 147.426 247.195 L 145.732 245.500 146.716 244.580 C 147.839 243.531,148.395 243.448,149.446 244.172 M329.778 245.607 L 330.479 246.353 329.681 247.093 C 328.683 248.018,328.679 248.475,329.659 249.639 C 330.699 250.875,332.039 250.920,332.558 249.737 C 332.758 249.284,333.020 248.840,333.142 248.751 C 333.403 248.560,329.830 244.861,329.384 244.861 C 329.216 244.861,329.393 245.197,329.778 245.607 M193.315 245.628 C 191.938 246.593,192.996 249.062,194.786 249.062 C 195.669 249.062,196.854 248.058,196.837 247.325 C 196.829 246.961,196.700 247.042,196.396 247.601 C 195.871 248.568,195.193 248.860,194.427 248.450 C 193.716 248.070,193.710 247.924,194.374 247.135 L 194.899 246.512 194.216 247.090 C 193.377 247.801,192.581 247.314,193.135 246.428 C 193.503 245.841,195.049 245.543,195.049 246.059 C 195.049 246.245,195.204 246.301,195.394 246.183 C 195.634 246.035,195.570 245.846,195.187 245.566 C 194.475 245.045,194.132 245.056,193.315 245.628 M239.170 245.742 C 238.999 246.061,238.869 246.500,238.880 246.717 C 238.891 246.934,239.047 246.808,239.226 246.437 C 239.598 245.664,240.802 245.517,241.069 246.212 C 241.164 246.459,241.127 246.662,240.987 246.662 C 240.391 246.662,239.950 248.481,240.431 248.961 C 240.938 249.469,242.161 249.067,242.161 248.392 C 242.161 248.131,242.068 248.134,241.800 248.402 C 241.215 248.987,240.660 248.815,240.660 248.049 C 240.660 247.004,241.507 246.372,242.001 247.048 C 242.356 247.533,243.061 247.762,243.061 247.392 C 243.061 246.128,239.722 244.712,239.170 245.742 M283.728 247.069 C 282.920 247.660,282.990 249.310,283.854 250.009 C 285.863 251.635,288.353 249.076,286.477 247.314 C 285.687 246.572,284.547 246.470,283.728 247.069 M285.802 247.435 C 286.957 248.590,286.726 250.263,285.412 250.263 C 284.790 250.263,283.571 248.967,283.571 248.305 C 283.571 247.126,284.954 246.587,285.802 247.435 M331.789 247.614 C 333.444 249.169,332.020 250.913,330.329 249.402 C 329.441 248.609,329.386 248.461,329.712 247.746 C 330.148 246.791,330.864 246.745,331.789 247.614 M190.786 248.537 C 190.730 248.908,190.518 249.179,190.315 249.137 C 189.637 248.999,189.937 249.528,191.292 250.857 C 192.949 252.483,193.448 252.239,191.920 250.548 C 190.851 249.364,190.827 249.289,191.285 248.590 C 191.690 247.972,191.696 247.862,191.326 247.862 C 191.086 247.862,190.843 248.166,190.786 248.537 M236.044 248.902 C 235.402 249.882,235.424 250.057,236.336 251.140 C 237.513 252.539,239.785 252.140,239.751 250.539 C 239.744 250.229,239.658 250.255,239.438 250.634 C 238.767 251.786,237.059 251.989,237.059 250.917 C 237.059 250.652,237.420 250.148,237.860 249.797 C 238.875 248.987,238.645 248.162,237.403 248.162 C 236.804 248.162,236.375 248.395,236.044 248.902 M279.970 248.400 C 279.970 248.530,280.578 249.234,281.320 249.962 C 283.357 251.962,283.187 252.035,278.245 251.279 C 277.535 251.170,276.969 251.205,276.969 251.357 C 276.969 251.810,280.837 255.497,281.069 255.265 C 281.187 255.147,280.617 254.366,279.802 253.530 L 278.320 252.010 281.320 252.217 L 284.321 252.424 282.229 250.293 C 280.054 248.079,279.970 248.008,279.970 248.400 M144.103 248.929 C 142.593 249.986,143.631 252.463,145.583 252.463 C 147.368 252.463,148.005 250.231,146.546 249.084 C 145.601 248.341,144.997 248.303,144.103 248.929 M237.959 248.860 C 237.959 249.375,236.627 250.631,236.362 250.365 C 236.041 250.044,236.125 249.216,236.519 248.822 C 237.003 248.339,237.959 248.364,237.959 248.860 M146.434 249.809 C 147.295 250.726,146.912 252.063,145.787 252.063 C 144.999 252.063,143.736 250.959,143.736 250.270 C 143.736 248.950,145.365 248.671,146.434 249.809 M326.482 250.263 C 325.715 251.029,325.721 251.779,326.503 252.773 C 327.318 253.808,328.932 253.872,329.615 252.896 C 330.309 251.906,330.181 251.556,329.461 252.473 C 328.777 253.341,327.946 253.493,327.409 252.846 C 327.136 252.517,327.254 252.237,327.972 251.519 C 328.997 250.494,329.097 250.109,328.408 249.845 C 327.596 249.533,327.104 249.640,326.482 250.263 M328.146 250.285 C 328.347 250.610,327.189 252.063,326.729 252.063 C 326.349 252.063,326.435 250.729,326.842 250.323 C 327.289 249.876,327.882 249.859,328.146 250.285 M231.381 251.039 C 230.146 252.078,230.164 252.136,232.411 254.395 C 234.276 256.268,235.670 256.903,233.929 255.085 C 232.748 253.852,233.131 253.450,235.300 253.647 C 236.268 253.735,237.059 253.684,237.059 253.535 C 237.059 253.386,236.755 253.261,236.384 253.259 C 234.820 253.250,234.359 252.938,234.359 251.889 C 234.359 250.183,232.895 249.765,231.381 251.039 M188.072 250.887 C 187.783 251.055,187.551 251.422,187.556 251.703 C 187.564 252.174,187.589 252.173,187.871 251.688 C 188.599 250.438,190.799 251.921,190.425 253.410 C 190.107 254.679,189.377 254.697,188.247 253.463 C 187.295 252.424,186.647 252.074,186.647 252.598 C 186.647 253.023,190.227 256.384,190.447 256.165 C 190.565 256.046,190.435 255.723,190.157 255.445 C 189.685 254.973,189.701 254.890,190.417 254.144 C 191.919 252.576,189.926 249.807,188.072 250.887 M233.766 251.322 C 234.810 252.580,232.913 254.054,231.748 252.889 L 230.990 252.131 231.624 251.497 C 232.371 250.750,233.233 250.680,233.766 251.322 M141.086 252.061 C 139.840 253.199,140.129 254.764,141.584 254.764 C 141.777 254.764,141.935 254.966,141.935 255.214 C 141.935 255.461,142.071 255.664,142.236 255.664 C 142.401 255.664,142.536 255.850,142.536 256.077 C 142.536 257.248,144.133 257.089,145.007 255.831 C 145.942 254.484,144.733 253.457,143.385 254.454 C 142.424 255.164,141.491 254.906,142.373 254.174 C 142.941 253.702,142.962 252.975,142.436 251.962 L 142.037 251.192 141.086 252.061 M321.513 252.738 L 320.454 253.713 322.559 255.797 C 324.542 257.760,326.050 258.462,324.251 256.585 C 323.093 255.376,323.458 254.947,325.468 255.154 C 326.351 255.245,327.151 255.195,327.245 255.042 C 327.340 254.889,327.105 254.762,326.724 254.760 C 325.243 254.751,324.681 254.425,324.681 253.575 C 324.681 251.716,323.082 251.293,321.513 252.738 M142.387 252.666 C 142.700 253.172,142.228 254.164,141.675 254.164 C 140.856 254.164,140.415 253.562,140.760 252.917 C 141.078 252.323,142.080 252.168,142.387 252.666 M323.924 252.956 C 325.162 254.323,323.223 255.637,321.958 254.288 L 321.230 253.512 321.939 252.938 C 322.835 252.210,323.253 252.214,323.924 252.956 M185.362 254.661 C 185.540 255.755,185.538 255.757,184.605 255.571 C 184.090 255.468,183.588 255.514,183.490 255.674 C 183.391 255.833,183.597 255.964,183.948 255.964 C 184.957 255.964,185.746 256.527,185.751 257.250 C 185.754 257.615,185.899 258.117,186.075 258.365 C 186.312 258.698,186.347 258.473,186.211 257.498 L 186.026 256.182 187.081 256.353 C 187.661 256.448,188.204 256.415,188.286 256.282 C 188.369 256.148,187.905 255.954,187.255 255.850 C 186.194 255.680,186.053 255.554,185.876 254.612 C 185.614 253.213,185.135 253.258,185.362 254.661 M144.936 255.057 C 144.936 255.383,144.605 255.867,144.199 256.133 C 142.992 256.924,142.351 256.097,143.332 255.012 C 144.004 254.271,144.936 254.297,144.936 255.057 M137.701 255.439 C 137.358 256.094,137.365 256.098,137.939 255.589 C 138.727 254.891,138.748 254.896,140.142 256.156 C 140.807 256.757,141.430 257.169,141.527 257.072 C 141.838 256.762,139.410 254.767,138.720 254.765 C 138.335 254.764,137.907 255.048,137.701 255.439 M179.958 256.499 L 178.849 257.635 180.909 259.679 L 182.968 261.723 184.057 260.634 C 184.656 260.035,185.146 259.388,185.146 259.196 C 185.146 259.004,184.672 259.307,184.091 259.870 L 183.036 260.892 182.264 260.119 L 181.491 259.347 182.300 258.537 C 183.355 257.483,183.067 257.195,181.972 258.210 L 181.132 258.988 180.375 258.231 L 179.618 257.474 180.641 256.419 C 181.203 255.839,181.529 255.364,181.365 255.364 C 181.201 255.364,180.568 255.875,179.958 256.499 M136.834 256.542 C 136.834 256.929,139.315 259.251,139.564 259.097 C 139.769 258.970,137.324 256.264,137.005 256.264 C 136.911 256.264,136.834 256.389,136.834 256.542 M134.434 258.665 C 132.704 260.394,135.291 263.318,137.078 261.654 C 137.999 260.796,137.939 259.469,136.944 258.686 C 135.950 257.904,135.200 257.898,134.434 258.665 M136.414 258.894 C 137.735 259.776,137.443 261.779,136.018 261.608 C 134.900 261.474,133.968 260.135,134.414 259.302 C 134.752 258.670,135.768 258.463,136.414 258.894 M130.533 260.288 C 130.533 260.521,130.797 261.562,131.121 262.601 C 131.848 264.938,131.896 264.898,129.277 264.111 C 126.362 263.235,126.267 263.570,128.736 266.020 C 129.889 267.164,130.833 267.974,130.833 267.819 C 130.833 267.664,130.199 266.895,129.425 266.109 C 127.718 264.375,127.789 264.257,130.158 264.891 C 132.421 265.498,132.435 265.485,131.880 263.354 C 131.221 260.825,131.281 260.786,133.083 262.566 C 133.991 263.462,134.734 264.061,134.734 263.897 C 134.734 263.559,131.084 259.865,130.750 259.865 C 130.630 259.865,130.533 260.055,130.533 260.288 " stroke="none" fill="#e0e0e0" fill-rule="evenodd"></path><path id="path3" d="M128.802 50.113 C 128.802 50.690,128.864 50.926,128.939 50.638 C 129.015 50.349,129.015 49.876,128.939 49.587 C 128.864 49.299,128.802 49.535,128.802 50.113 M124.770 93.068 C 124.886 93.176,125.616 93.312,126.393 93.370 C 127.169 93.428,127.709 93.387,127.593 93.278 C 127.477 93.170,126.747 93.034,125.970 92.976 C 125.194 92.918,124.654 92.960,124.770 93.068 M131.508 93.230 C 131.797 93.306,132.269 93.306,132.558 93.230 C 132.847 93.155,132.611 93.093,132.033 93.093 C 131.455 93.093,131.219 93.155,131.508 93.230 M78.738 137.584 C 78.739 139.895,78.786 140.801,78.843 139.597 C 78.900 138.393,78.899 136.503,78.842 135.396 C 78.784 134.289,78.738 135.274,78.738 137.584 M48.098 140.285 C 48.100 141.110,48.158 141.412,48.227 140.956 C 48.296 140.500,48.294 139.825,48.223 139.456 C 48.152 139.087,48.096 139.460,48.098 140.285 M191.547 230.683 C 219.906 230.725,266.223 230.725,294.473 230.683 C 322.723 230.640,299.520 230.606,242.911 230.606 C 186.302 230.606,163.188 230.640,191.547 230.683 M244.288 241.335 C 244.357 241.377,244.886 241.815,245.463 242.311 L 246.512 243.211 245.630 242.236 C 245.146 241.699,244.617 241.260,244.455 241.260 C 244.293 241.260,244.218 241.294,244.288 241.335 M189.777 249.095 C 189.661 249.282,190.210 250.038,191.030 250.821 L 192.489 252.213 191.183 250.816 C 190.465 250.047,189.969 249.271,190.080 249.090 C 190.192 248.910,190.215 248.762,190.133 248.762 C 190.050 248.762,189.890 248.912,189.777 249.095 M278.770 253.713 C 279.833 254.786,280.770 255.664,280.853 255.664 C 280.935 255.664,280.133 254.786,279.070 253.713 C 278.007 252.641,277.069 251.763,276.987 251.763 C 276.904 251.763,277.706 252.641,278.770 253.713 " stroke="none" fill="#746774" fill-rule="evenodd"></path><path id="path4" d="M122.042 47.323 C 122.254 47.474,122.449 48.569,122.513 49.972 L 122.623 52.363 122.602 49.837 C 122.585 47.858,122.483 47.284,122.131 47.188 C 121.812 47.102,121.786 47.141,122.042 47.323 M125.201 50.113 C 125.201 50.690,125.263 50.926,125.338 50.638 C 125.414 50.349,125.414 49.876,125.338 49.587 C 125.263 49.299,125.201 49.535,125.201 50.113 M130.002 50.113 C 130.002 50.690,130.064 50.926,130.139 50.638 C 130.215 50.349,130.215 49.876,130.139 49.587 C 130.064 49.299,130.002 49.535,130.002 50.113 M125.650 92.640 C 126.182 92.706,127.128 92.707,127.750 92.642 C 128.373 92.577,127.937 92.523,126.782 92.522 C 125.626 92.520,125.117 92.573,125.650 92.640 M130.429 92.648 C 130.352 92.772,130.952 92.873,131.762 92.873 C 132.571 92.873,133.233 92.772,133.233 92.648 C 133.233 92.524,132.634 92.423,131.901 92.423 C 131.168 92.423,130.505 92.524,130.429 92.648 M130.608 94.224 C 130.675 94.471,131.057 94.699,131.456 94.729 C 132.029 94.773,132.056 94.750,131.583 94.619 C 131.253 94.529,130.871 94.301,130.735 94.114 C 130.571 93.889,130.528 93.926,130.608 94.224 M69.410 134.884 C 69.412 135.874,69.468 136.243,69.535 135.704 C 69.602 135.164,69.600 134.354,69.532 133.903 C 69.463 133.452,69.409 133.893,69.410 134.884 M84.758 137.434 L 84.771 141.785 87.022 141.804 L 89.272 141.823 87.105 141.717 L 84.938 141.610 84.841 137.347 L 84.745 133.083 84.758 137.434 M86.257 136.909 L 86.272 140.585 87.849 140.611 L 89.426 140.637 87.933 140.521 L 86.440 140.404 86.341 136.818 L 86.243 133.232 86.257 136.909 M67.954 137.659 L 67.967 141.785 68.717 141.785 C 69.428 141.785,69.469 141.694,69.492 140.059 L 69.517 138.332 69.402 139.983 C 69.306 141.373,69.196 141.635,68.711 141.635 C 68.175 141.635,68.127 141.347,68.037 137.584 L 67.941 133.533 67.954 137.659 M101.495 135.634 C 101.495 136.212,101.557 136.448,101.632 136.159 C 101.708 135.870,101.708 135.398,101.632 135.109 C 101.557 134.820,101.495 135.056,101.495 135.634 M32.170 138.689 C 32.111 141.440,32.072 141.601,31.433 141.724 L 30.758 141.854 31.442 141.895 C 32.358 141.949,32.450 141.594,32.332 138.461 L 32.231 135.784 32.170 138.689 M130.002 140.435 C 130.002 141.013,130.064 141.249,130.139 140.960 C 130.215 140.671,130.215 140.199,130.139 139.910 C 130.064 139.621,130.002 139.857,130.002 140.435 M96.473 140.650 C 99.252 140.843,98.678 141.587,95.649 141.719 L 93.173 141.827 95.724 141.806 C 98.068 141.787,98.275 141.737,98.275 141.185 C 98.275 140.658,98.066 140.582,96.548 140.560 L 94.821 140.536 96.473 140.650 M74.119 141.635 L 73.368 141.876 74.194 141.906 C 74.647 141.922,75.019 141.800,75.019 141.635 C 75.019 141.470,74.985 141.349,74.944 141.365 C 74.902 141.382,74.531 141.503,74.119 141.635 M126.032 186.797 C 125.303 187.539,124.774 188.147,124.856 188.147 C 124.939 188.147,125.603 187.539,126.332 186.797 C 127.060 186.054,127.589 185.446,127.507 185.446 C 127.424 185.446,126.760 186.054,126.032 186.797 M127.078 188.059 C 127.736 188.132,128.388 188.350,128.526 188.544 C 128.699 188.787,128.740 188.756,128.657 188.447 C 128.574 188.140,128.112 187.986,127.208 187.962 C 125.892 187.927,125.891 187.928,127.078 188.059 M130.008 230.608 C 130.011 231.268,130.073 231.503,130.145 231.129 C 130.216 230.756,130.214 230.216,130.139 229.929 C 130.064 229.642,130.005 229.947,130.008 230.608 M243.361 239.675 C 243.361 239.867,243.496 240.108,243.661 240.210 C 243.826 240.312,243.977 240.691,243.996 241.053 C 244.022 241.552,244.063 241.585,244.167 241.191 C 244.242 240.905,244.091 240.369,243.832 239.999 C 243.573 239.629,243.361 239.483,243.361 239.675 M336.984 240.935 C 336.984 241.252,336.815 241.578,336.609 241.662 C 336.385 241.752,336.445 241.823,336.759 241.837 C 337.126 241.853,337.284 241.634,337.284 241.110 C 337.284 240.698,337.217 240.360,337.134 240.360 C 337.052 240.360,336.984 240.619,336.984 240.935 M151.194 241.929 C 151.750 242.638,152.738 242.475,152.738 241.674 C 152.738 241.571,152.536 241.655,152.288 241.860 C 151.927 242.160,151.734 242.152,151.313 241.822 C 150.838 241.450,150.827 241.460,151.194 241.929 M286.272 241.773 C 286.272 241.935,286.538 242.309,286.865 242.604 C 287.191 242.899,287.363 243.292,287.248 243.476 C 286.790 244.209,286.904 244.546,287.489 244.181 C 287.830 243.968,287.926 243.756,287.734 243.638 C 287.562 243.531,287.466 243.388,287.521 243.320 C 287.577 243.252,287.318 242.810,286.947 242.338 C 286.575 241.866,286.272 241.612,286.272 241.773 M293.005 242.686 C 292.617 243.283,292.594 243.408,292.923 243.138 C 293.174 242.934,293.438 242.826,293.512 242.899 C 293.585 242.972,293.645 242.769,293.645 242.446 C 293.645 241.702,293.645 241.702,293.005 242.686 M154.523 244.128 C 154.095 244.584,153.585 244.839,153.270 244.756 C 152.977 244.680,152.813 244.740,152.906 244.889 C 153.212 245.385,153.816 245.172,154.689 244.261 C 155.163 243.766,155.482 243.361,155.397 243.361 C 155.313 243.361,154.919 243.706,154.523 244.128 M289.722 244.561 C 290.367 245.221,290.962 245.761,291.045 245.761 C 291.127 245.761,290.667 245.221,290.023 244.561 C 289.378 243.901,288.783 243.361,288.700 243.361 C 288.618 243.361,289.078 243.901,289.722 244.561 M335.493 245.062 C 335.836 245.613,335.831 245.797,335.466 246.262 C 335.079 246.754,335.084 246.773,335.511 246.439 C 335.774 246.234,336.069 246.146,336.166 246.244 C 336.264 246.341,336.270 246.142,336.181 245.801 C 336.092 245.460,335.810 245.008,335.553 244.796 C 335.139 244.454,335.132 244.483,335.493 245.062 M329.551 245.628 C 329.847 245.980,330.013 246.546,329.936 246.944 C 329.862 247.329,329.891 247.554,330.000 247.445 C 330.462 246.983,330.320 246.101,329.700 245.576 C 329.036 245.014,329.035 245.014,329.551 245.628 M331.883 245.255 C 331.883 245.307,332.322 245.746,332.858 246.230 L 333.833 247.112 332.952 246.137 C 332.131 245.227,331.883 245.023,331.883 245.255 M147.401 247.110 C 148.344 248.086,149.159 248.823,149.212 248.748 C 149.266 248.673,148.494 247.875,147.498 246.974 L 145.686 245.336 147.401 247.110 M150.614 246.436 C 150.525 247.081,150.570 247.449,150.721 247.298 C 150.866 247.153,150.936 246.647,150.877 246.173 C 150.778 245.380,150.757 245.401,150.614 246.436 M289.374 246.229 C 289.052 246.912,289.061 246.917,289.759 246.460 C 290.585 245.919,290.603 245.876,290.088 245.678 C 289.877 245.597,289.556 245.845,289.374 246.229 M194.772 246.250 C 194.726 247.488,193.592 247.779,193.167 246.662 C 193.029 246.298,192.991 246.310,192.972 246.726 C 192.922 247.807,193.998 247.904,194.930 246.902 C 195.408 246.389,195.642 246.058,195.449 246.167 C 195.257 246.276,195.032 246.196,194.948 245.988 C 194.864 245.781,194.785 245.899,194.772 246.250 M332.137 247.302 C 333.046 248.272,333.318 248.742,333.037 248.854 C 332.761 248.964,332.800 249.022,333.158 249.039 C 333.985 249.076,333.789 248.687,332.258 247.249 L 330.833 245.911 332.137 247.302 M242.536 247.571 C 242.164 247.721,241.860 247.914,241.860 248.002 C 241.860 248.294,242.338 248.168,242.928 247.721 C 243.592 247.219,243.499 247.184,242.536 247.571 M150.021 248.687 L 148.987 249.812 150.113 248.778 C 151.160 247.816,151.376 247.562,151.147 247.562 C 151.096 247.562,150.590 248.068,150.021 248.687 M282.213 250.188 C 284.119 252.170,284.239 252.366,283.563 252.398 C 283.002 252.424,282.957 252.468,283.378 252.576 C 284.713 252.920,284.341 252.071,282.292 250.101 L 280.120 248.012 282.213 250.188 M281.185 250.128 C 281.920 250.962,282.582 251.599,282.656 251.543 C 282.731 251.487,282.130 250.805,281.321 250.027 L 279.850 248.612 281.185 250.128 M144.096 249.422 C 143.898 249.620,143.752 250.059,143.771 250.398 C 143.805 251.000,143.809 251.001,143.953 250.413 C 144.034 250.083,144.238 249.644,144.405 249.437 C 144.794 248.959,144.570 248.948,144.096 249.422 M326.899 249.880 C 326.997 249.978,326.909 250.272,326.704 250.535 C 326.375 250.957,326.393 250.965,326.853 250.604 C 327.140 250.379,327.585 250.277,327.844 250.376 C 328.102 250.475,328.241 250.439,328.152 250.295 C 328.064 250.152,327.706 249.960,327.357 249.869 C 327.008 249.778,326.802 249.783,326.899 249.880 M142.428 252.063 C 142.617 252.311,142.838 252.783,142.919 253.113 C 143.059 253.683,143.068 253.681,143.101 253.075 C 143.120 252.724,142.899 252.251,142.611 252.025 C 142.154 251.667,142.130 251.672,142.428 252.063 M329.182 252.513 C 328.977 252.761,328.521 252.979,328.170 252.998 C 327.631 253.027,327.617 253.055,328.079 253.174 C 328.380 253.252,328.864 253.101,329.154 252.839 C 329.444 252.576,329.793 252.463,329.930 252.587 C 330.067 252.712,330.082 252.644,329.963 252.438 C 329.689 251.962,329.635 251.967,329.182 252.513 M188.569 253.788 C 188.883 254.160,189.330 254.464,189.562 254.464 C 189.793 254.464,189.909 254.583,189.818 254.730 C 189.728 254.876,189.889 255.173,190.176 255.390 C 190.618 255.725,190.641 255.721,190.325 255.366 C 190.023 255.027,190.079 254.807,190.625 254.207 C 190.995 253.800,191.095 253.586,190.848 253.731 C 190.031 254.212,189.265 254.181,188.626 253.644 L 187.997 253.113 188.569 253.788 M233.158 254.057 C 233.158 254.219,233.597 254.748,234.134 255.233 L 235.109 256.114 234.209 255.065 C 233.713 254.488,233.275 253.960,233.233 253.890 C 233.192 253.820,233.158 253.896,233.158 254.057 M322.281 255.814 C 323.344 256.887,324.281 257.764,324.364 257.764 C 324.446 257.764,323.644 256.887,322.581 255.814 C 321.517 254.741,320.580 253.863,320.497 253.863 C 320.415 253.863,321.217 254.741,322.281 255.814 M138.182 255.369 C 138.078 255.536,137.895 255.613,137.776 255.540 C 137.657 255.466,137.538 255.700,137.513 256.060 C 137.473 256.632,137.504 256.649,137.761 256.199 C 137.922 255.915,138.286 255.548,138.569 255.383 C 138.853 255.217,138.924 255.078,138.727 255.073 C 138.531 255.068,138.285 255.201,138.182 255.369 M180.176 256.039 L 179.295 257.014 180.344 256.114 C 180.920 255.619,181.449 255.180,181.519 255.139 C 181.588 255.098,181.513 255.064,181.351 255.064 C 181.190 255.064,180.661 255.503,180.176 256.039 M140.200 256.418 C 140.813 257.060,141.364 257.524,141.423 257.449 C 141.483 257.375,140.981 256.850,140.308 256.283 L 139.085 255.252 140.200 256.418 M144.437 255.739 C 144.137 256.220,144.017 256.983,144.284 256.717 C 144.395 256.605,144.492 256.357,144.500 256.164 C 144.507 255.971,144.686 255.851,144.897 255.896 C 145.108 255.942,145.195 255.840,145.091 255.671 C 144.843 255.271,144.722 255.284,144.437 255.739 M180.498 256.561 C 180.025 257.054,179.696 257.506,179.767 257.565 C 179.837 257.623,180.280 257.219,180.750 256.667 C 181.811 255.421,181.654 255.355,180.498 256.561 M137.434 257.558 C 137.434 257.610,137.873 258.049,138.410 258.534 L 139.385 259.415 138.503 258.440 C 137.682 257.531,137.434 257.326,137.434 257.558 M132.944 261.823 C 134.011 262.983,134.945 263.889,135.020 263.837 C 135.095 263.786,134.222 262.837,133.080 261.729 L 131.004 259.715 132.944 261.823 M131.457 261.740 C 131.470 262.119,131.551 262.239,131.641 262.012 C 131.753 261.730,132.223 262.003,133.193 262.912 L 134.584 264.216 133.095 262.640 C 131.380 260.827,131.425 260.852,131.457 261.740 M128.432 266.017 C 129.495 267.089,130.433 267.967,130.515 267.967 C 130.598 267.967,129.795 267.089,128.732 266.017 C 127.669 264.944,126.732 264.066,126.649 264.066 C 126.566 264.066,127.369 264.944,128.432 266.017 M128.132 264.604 C 128.132 264.734,128.773 265.443,129.557 266.179 L 130.983 267.517 129.701 266.148 C 128.996 265.396,128.512 264.687,128.625 264.573 C 128.739 264.459,128.675 264.366,128.482 264.366 C 128.290 264.366,128.132 264.473,128.132 264.604 " stroke="none" fill="#7c7c7c" fill-rule="evenodd"></path></g></svg>